<svg xmlns="http://www.w3.org/2000/svg" width="30.61" height="21.115" viewBox="0 0 30.61 21.115">
  <g id="Icon_ionic-ios-people" data-name="Icon ionic-ios-people" transform="translate(-2.215 -7.748)">
    <path id="Path_3386" data-name="Path 3386" d="M23.451,23.994c-.735-.289-1.935-.3-2.467-.528a3.351,3.351,0,0,1-1.142-.586,8.553,8.553,0,0,1-.19-2.062A3.331,3.331,0,0,0,20.3,19.8a12.323,12.323,0,0,0,.315-1.99s.433.2.6-.753a6.909,6.909,0,0,0,.348-1.867c-.079-.608-.381-.463-.381-.463a5.9,5.9,0,0,0,.381-2.706A4.119,4.119,0,0,0,17.33,7.748a4.132,4.132,0,0,0-4.245,4.277,5.985,5.985,0,0,0,.374,2.706s-.308-.145-.381.463a6.433,6.433,0,0,0,.348,1.867c.171.962.6.753.6.753a12.442,12.442,0,0,0,.315,1.99,3.331,3.331,0,0,0,.649,1.013,8.553,8.553,0,0,1-.19,2.062,3.222,3.222,0,0,1-1.142.579c-.525.224-1.725.253-2.467.543a5.067,5.067,0,0,0-3,4.863H26.449A5.058,5.058,0,0,0,23.451,23.994Z" transform="translate(0.174 0)" fill="#25F8FB"/>
    <path id="Path_3387" data-name="Path 3387" d="M10.066,20.369a4.913,4.913,0,0,0,2.417-.673c-1.122-1.7-.514-3.683-.745-5.536a3.053,3.053,0,0,0-3.379-2.952H8.329a3.062,3.062,0,0,0-3.35,2.952c-.232,1.845.412,4.052-.738,5.536a4.546,4.546,0,0,0,2.424.6h0a3.665,3.665,0,0,1-.072,1.216,1.827,1.827,0,0,1-.868.4,16.79,16.79,0,0,0-1.874.521,3.047,3.047,0,0,0-1.635,2.692H8.026a5.2,5.2,0,0,1,2.316-2.156,4.859,4.859,0,0,1,1.787-.376s.275-.434-.63-.6A6.168,6.168,0,0,1,10.11,21.5C9.972,21.346,10.066,20.369,10.066,20.369Z" transform="translate(0 0.101)" fill="#25F8FB"/>
    <path id="Path_3388" data-name="Path 3388" d="M26.225,20.369a4.913,4.913,0,0,1-2.417-.673c1.122-1.7.514-3.683.745-5.536a3.053,3.053,0,0,1,3.379-2.952h.029a3.062,3.062,0,0,1,3.35,2.952c.232,1.845-.412,4.052.738,5.536a4.546,4.546,0,0,1-2.424.6h0a3.665,3.665,0,0,0,.072,1.216,1.827,1.827,0,0,0,.868.4,16.79,16.79,0,0,1,1.874.521,3.047,3.047,0,0,1,1.635,2.692H28.265a5.2,5.2,0,0,0-2.316-2.156,4.859,4.859,0,0,0-1.787-.376s-.275-.434.63-.6a6.168,6.168,0,0,0,1.389-.485C26.319,21.346,26.225,20.369,26.225,20.369Z" transform="translate(-1.251 0.101)" fill="#25F8FB"/>
  </g>
</svg>
