<svg xmlns="http://www.w3.org/2000/svg" width="19.479" height="21" viewBox="0 0 19.479 21">
  <g id="Group_16131" data-name="Group 16131" transform="translate(-130 -753.442)">
    <g id="scroll" transform="translate(111.457 753.442)">
      <path id="Path_2729" data-name="Path 2729" d="M125.6,1.56A1.562,1.562,0,0,0,124.042,0H112.978a2.775,2.775,0,0,1,.478,1.56V19.44a1.56,1.56,0,0,0,3.121,0V16.4H125.6Zm-9.994.627h3.921v1.23h-3.921Zm7.842,12.025h-7.842v-1.23h7.842v1.23Zm0-2.7h-7.842v-1.23h7.842v1.23Zm0-2.7h-7.842V7.585h7.842v1.23Zm0-2.7h-7.842V4.886h7.842v1.23Zm0-2.7h-1.384V2.187h1.384Z" transform="translate(-90.562)" fill="#25F8FB"/>
      <path id="Path_2730" data-name="Path 2730" d="M20.1,0a1.562,1.562,0,0,0-1.56,1.56V3.369h3.121V1.56A1.562,1.562,0,0,0,20.1,0Z" fill="#25F8FB"/>
      <path id="Path_2731" data-name="Path 2731" d="M219.548,429.857v1.809a2.775,2.775,0,0,1-.478,1.56h9.694a1.562,1.562,0,0,0,1.56-1.56v-1.809Z" transform="translate(-192.302 -412.226)" fill="#25F8FB"/>
    </g>
  </g>
</svg>
