<svg xmlns="http://www.w3.org/2000/svg" width="21.115" height="21.115" viewBox="0 0 21.115 21.115">
  <g id="Group_16134" data-name="Group 16134" transform="translate(-319 -754.442)">
    <path id="Path_19" data-name="Path 19" d="M10.558,0A10.558,10.558,0,1,0,21.115,10.558,10.57,10.57,0,0,0,10.558,0Zm0,3.079A5.059,5.059,0,1,1,5.5,8.138,5.065,5.065,0,0,1,10.558,3.079Zm0,16.276a8.781,8.781,0,0,1-7.03-3.531,16.566,16.566,0,0,1,7.03-1.748,16.567,16.567,0,0,1,7.03,1.748A8.781,8.781,0,0,1,10.558,19.356Z" transform="translate(319 754.442)" fill="#25F8FB"/>
  </g>
</svg>
