<svg xmlns="http://www.w3.org/2000/svg" width="22.173" height="22.175" viewBox="0 0 22.173 22.175">
  <path id="social-media" d="M21.577,9.645l0,0L12.53.6A2.041,2.041,0,0,0,9.643.6L.6,9.638l-.009.009a2.041,2.041,0,0,0,1.359,3.478q.031,0,.063,0h.361v6.657a2.392,2.392,0,0,0,2.389,2.389H8.3a.65.65,0,0,0,.65-.65V16.306a1.091,1.091,0,0,1,1.09-1.09H12.13a1.091,1.091,0,0,1,1.09,1.09v5.219a.65.65,0,0,0,.65.65h3.539A2.392,2.392,0,0,0,19.8,19.786V13.129h.334a2.042,2.042,0,0,0,1.445-3.484Zm0,0" transform="translate(0 0.001)" fill="#25f8fb"/>
</svg>
